External Loads File
version=1
nRows=77
nColumns=13
Range=5.000000e-03-10 seconds
endheader
time 	forceRightX 	forceRightY 	forceRightZ 	pointRightX 	pointRightY 	pointRightZ 	forceLeftX 	forceLeftY 	forceLeftZ 	pointLeftX 	pointLeftY 	pointLeftZ 		
2.505000 -188.936699 427.856955 -0.000000 0.215704 0.478362 -0.104614 56.313753 -31.952530 -0.000000 0.108435 0.161710 -0.345857
2.510000 -197.226355 439.364563 -0.000000 0.219509 0.475595 -0.104612 58.125406 -38.469886 -0.000000 0.103920 0.164233 -0.345732
2.515000 -205.047227 449.367988 -0.000000 0.223311 0.472593 -0.104561 59.821972 -43.376359 -0.000000 0.099389 0.166779 -0.345635
2.520000 -212.412807 457.881314 -0.000000 0.227094 0.469481 -0.104420 61.446158 -46.729250 -0.000000 0.094961 0.169580 -0.345532
2.525000 -219.188960 465.056085 -0.000000 0.230807 0.466293 -0.104278 63.064326 -48.634899 -0.000000 0.090492 0.172538 -0.345432
2.530000 -225.134468 471.160555 -0.000000 0.234748 0.462990 -0.104399 64.731189 -49.252200 -0.000000 0.086113 0.175563 -0.345308
2.535000 -230.795294 476.134679 -0.000000 0.238494 0.459677 -0.104458 66.547955 -48.672785 -0.000000 0.081752 0.178757 -0.345261
2.540000 -235.637205 480.464798 -0.000000 0.242367 0.456157 -0.104451 68.466291 -47.151832 -0.000000 0.077375 0.182074 -0.345332
2.545000 -240.182683 484.126771 -0.000000 0.246177 0.452483 -0.104528 70.529724 -44.781227 -0.000000 0.073191 0.185566 -0.345240
2.550000 -244.422362 487.325831 -0.000000 0.249966 0.448751 -0.104453 72.729203 -41.698721 -0.000000 0.069107 0.189147 -0.345072
2.555000 -248.142043 490.336473 -0.000000 0.253713 0.444938 -0.104517 75.052496 -38.044980 -0.000000 0.065041 0.192922 -0.345001
2.560000 -251.394895 493.278113 -0.000000 0.257476 0.441022 -0.104473 77.523882 -33.900884 -0.000000 0.061073 0.196801 -0.344928
2.565000 -254.452988 496.156321 -0.000000 0.260872 0.436926 -0.104314 80.182436 -29.316393 -0.000000 0.057194 0.200859 -0.344742
2.570000 -256.767147 499.392984 -0.000000 0.264343 0.432641 -0.104292 83.004921 -24.504427 -0.000000 0.053435 0.205027 -0.344678
2.575000 -258.635835 502.942271 -0.000000 0.267734 0.428377 -0.104355 85.993818 -19.567293 -0.000000 0.049747 0.209303 -0.344522
2.580000 -260.049538 506.868018 -0.000000 0.270954 0.424044 -0.104318 89.095400 -14.654010 -0.000000 0.046186 0.213754 -0.344346
2.585000 -260.826334 511.288048 -0.000000 0.273997 0.419428 -0.104073 92.230660 -9.927819 -0.000000 0.042743 0.218287 -0.344310
2.590000 -260.939840 516.224715 -0.000000 0.277261 0.414872 -0.104607 95.331386 -5.500817 -0.000000 0.039483 0.222890 -0.344151
2.595000 -260.567658 521.605555 -0.000000 0.280180 0.410038 -0.104505 98.351538 -1.426898 -0.000000 0.036325 0.227628 -0.344017
2.600000 -260.123751 527.254021 -0.000000 0.282948 0.405174 -0.104564 101.261867 2.283859 -0.000000 0.033389 0.232350 -0.343925
2.605000 -259.081527 533.434964 -0.000000 0.285617 0.400244 -0.104595 104.046314 5.426149 -0.000000 0.030597 0.237273 -0.343792
2.610000 -257.781945 539.935802 -0.000000 0.288097 0.395217 -0.104601 106.684100 7.951680 -0.000000 0.028044 0.242212 -0.343717
2.615000 -255.723695 546.922528 -0.000000 0.290504 0.390109 -0.104598 109.149632 9.654922 -0.000000 0.025648 0.247307 -0.343564
2.620000 -253.361369 554.096913 -0.000000 0.292794 0.384968 -0.104536 111.397613 10.549181 -0.000000 0.023500 0.252380 -0.343491
2.625000 -249.794316 561.781225 -0.000000 0.294985 0.379573 -0.104549 113.409738 10.423003 -0.000000 0.021545 0.257662 -0.343435
2.630000 -246.076627 569.402100 -0.000000 0.297024 0.374232 -0.104591 115.127216 9.497130 -0.000000 0.019823 0.262891 -0.343381
2.635000 -241.734102 577.066025 -0.000000 0.298912 0.368856 -0.104618 116.502030 7.710960 -0.000000 0.018274 0.268230 -0.343411
2.640000 -236.974717 584.573718 -0.000000 0.300622 0.363393 -0.104685 117.465992 5.168827 -0.000000 0.017000 0.273579 -0.343394
2.645000 -231.467437 591.966066 -0.000000 0.302283 0.357827 -0.104643 117.980144 1.899465 -0.000000 0.015925 0.279044 -0.343405
2.650000 -225.995237 598.863022 -0.000000 0.303714 0.352311 -0.104781 118.043229 -1.820522 -0.000000 0.015081 0.284470 -0.343486
2.655000 -220.015931 605.408402 -0.000000 0.305072 0.346757 -0.104734 117.700196 -5.975674 -0.000000 0.014438 0.290008 -0.343474
2.660000 -213.818255 611.417268 -0.000000 0.306244 0.341149 -0.104884 117.016040 -10.398865 -0.000000 0.013972 0.295528 -0.343488
2.665000 -207.355987 616.838250 -0.000000 0.307312 0.335506 -0.104872 116.051974 -15.002474 -0.000000 0.013715 0.301065 -0.343554
2.670000 -200.131761 621.778623 -0.000000 0.308206 0.329753 -0.104878 114.844089 -19.795121 -0.000000 0.013694 0.306761 -0.343678
2.675000 -192.910763 625.948749 -0.000000 0.308985 0.324120 -0.104950 113.466445 -24.567688 -0.000000 0.013791 0.312460 -0.343673
2.680000 -185.491914 629.429131 -0.000000 0.309544 0.318374 -0.104897 111.983737 -29.306021 -0.000000 0.014090 0.318023 -0.343748
2.685000 -177.366655 632.440846 -0.000000 0.309952 0.312672 -0.104885 110.450743 -34.053043 -0.000000 0.014571 0.323822 -0.343793
2.690000 -169.269957 634.888633 -0.000000 0.310193 0.306995 -0.104811 108.980922 -38.638617 -0.000000 0.015228 0.329514 -0.343958
2.695000 -160.787007 637.015459 -0.000000 0.310409 0.301251 -0.104509 107.609389 -43.101483 -0.000000 0.016035 0.335230 -0.344037
2.700000 -151.700832 638.993864 -0.000000 0.309875 0.295486 -0.104380 106.352319 -47.447138 -0.000000 0.017081 0.341020 -0.344177
2.705000 -143.068718 640.709728 -0.000000 0.309956 0.289730 -0.104705 105.295495 -51.471050 -0.000000 0.018208 0.346714 -0.344196
2.710000 -134.262902 642.463374 -0.000000 0.309739 0.284051 -0.104165 104.355365 -55.245594 -0.000000 0.019592 0.352502 -0.344308
2.715000 -124.900962 644.437338 -0.000000 0.308708 0.278217 -0.104794 103.408308 -58.786731 -0.000000 0.021115 0.358236 -0.344305
2.720000 -116.812752 646.324291 -0.000000 0.307949 0.272652 -0.104788 102.523684 -61.745580 -0.000000 0.022795 0.363755 -0.344393
2.725000 -108.478922 648.398077 -0.000000 0.306976 0.267038 -0.104723 101.488737 -64.323796 -0.000000 0.024684 0.369298 -0.344563
2.730000 -99.962260 650.549791 -0.000000 0.305863 0.261435 -0.104246 100.260266 -66.507079 -0.000000 0.026790 0.374927 -0.344741
2.735000 -92.054683 652.549356 -0.000000 0.304640 0.255908 -0.104224 98.899884 -68.214880 -0.000000 0.029057 0.380409 -0.344845
2.740000 -84.177508 654.381519 -0.000000 0.303241 0.250482 -0.104225 97.345518 -69.604987 -0.000000 0.031580 0.385976 -0.344912
2.745000 -76.939258 655.855836 -0.000000 0.301635 0.245140 -0.104189 95.657861 -70.656385 -0.000000 0.034250 0.391311 -0.344955
2.750000 -70.127939 656.887110 -0.000000 0.300201 0.239875 -0.104548 93.799706 -71.457040 -0.000000 0.037075 0.396718 -0.344890
2.755000 -62.701241 657.474373 -0.000000 0.298275 0.234644 -0.104506 91.632509 -72.195143 -0.000000 0.040160 0.402161 -0.345004
2.760000 -55.889036 657.425885 -0.000000 0.296112 0.229512 -0.104412 89.267090 -72.728745 -0.000000 0.043304 0.407311 -0.345052
2.765000 -49.183323 656.780627 -0.000000 0.293835 0.224473 -0.104341 86.632583 -73.167836 -0.000000 0.046647 0.412428 -0.345023
2.770000 -42.520790 655.535252 -0.000000 0.291418 0.219513 -0.104267 83.708132 -73.567901 -0.000000 0.050211 0.417478 -0.345115
2.775000 -34.914713 653.697117 -0.000000 0.288497 0.214710 -0.103788 80.356540 -74.085064 -0.000000 0.053826 0.422940 -0.345168
2.780000 -27.871338 651.065920 -0.000000 0.285797 0.209971 -0.103742 76.701563 -74.539497 -0.000000 0.058253 0.427682 -0.345786
2.785000 -21.393147 647.512968 -0.000000 0.282971 0.205292 -0.103621 72.685393 -74.946850 -0.000000 0.062443 0.432346 -0.345759
2.790000 -15.104981 642.939643 -0.000000 0.279953 0.200971 -0.103540 68.203793 -75.373553 -0.000000 0.066813 0.436906 -0.345923
2.795000 -9.457841 637.295143 -0.000000 0.276774 0.196598 -0.103526 63.256822 -75.813177 -0.000000 0.070930 0.441229 -0.345264
2.800000 -4.738409 630.609057 -0.000000 0.273551 0.192496 -0.103351 57.846763 -76.310948 -0.000000 0.075202 0.444903 -0.345396
2.805000 1.299071 622.943063 -0.000000 0.270460 0.188491 -0.103133 51.687057 -77.147341 -0.000000 0.079918 0.449580 -0.345384
2.810000 7.007417 614.317088 -0.000000 0.266958 0.184643 -0.102964 44.978248 -78.225439 -0.000000 0.084797 0.453528 -0.345410
2.815000 13.409166 604.726968 -0.000000 0.262950 0.181010 -0.103300 37.624766 -79.644198 -0.000000 0.089972 0.457315 -0.345535
2.820000 18.701762 594.168720 -0.000000 0.259349 0.177473 -0.103147 29.941967 -81.258840 -0.000000 0.095089 0.460939 -0.345498
2.825000 24.016782 582.543301 -0.000000 0.255563 0.174189 -0.103091 21.907253 -83.048835 -0.000000 0.100300 0.464370 -0.345508
2.830000 29.226187 569.758504 -0.000000 0.251645 0.170997 -0.102972 13.703225 -84.832200 -0.000000 0.105630 0.467147 -0.345482
2.835000 34.884833 555.701957 -0.000000 0.247574 0.168010 -0.102953 5.442423 -86.380065 -0.000000 0.110947 0.470293 -0.345499
2.840000 40.518658 540.341548 -0.000000 0.243408 0.165198 -0.102888 -2.611887 -87.390380 -0.000000 0.116254 0.473239 -0.345504
2.845000 46.305338 523.626911 -0.000000 0.239081 0.162703 -0.102792 -10.334208 -87.557519 -0.000000 0.121616 0.476126 -0.345600
2.850000 51.711437 505.570434 -0.000000 0.234673 0.160011 -0.102702 -17.537293 -86.604369 -0.000000 0.126753 0.478694 -0.345672
2.855000 56.918159 486.142251 -0.000000 0.230177 0.157793 -0.102587 -24.199602 -84.283471 -0.000000 0.131979 0.481197 -0.345854
2.860000 61.794731 465.364882 -0.000000 0.225701 0.155705 -0.102561 -30.278753 -80.403476 -0.000000 0.137374 0.483412 -0.346003
2.865000 66.013037 443.301537 -0.000000 0.221057 0.153849 -0.102432 -35.708503 -74.860538 -0.000000 0.142605 0.485373 -0.345918
2.870000 69.441310 419.983637 -0.000000 0.216450 0.152283 -0.102410 -40.465740 -67.632345 -0.000000 0.147783 0.487215 -0.346203
2.875000 71.837914 395.442328 -0.000000 0.211859 0.150881 -0.102288 -44.538841 -58.796459 -0.000000 0.152742 0.488808 -0.346251
2.880000 73.414041 369.628184 -0.000000 0.207184 0.149587 -0.102230 -48.014324 -48.440963 -0.000000 0.157574 0.490286 -0.346352
2.885000 74.097890 342.579408 -0.000000 0.202476 0.148921 -0.102151 -50.930659 -36.692741 -0.000000 0.162386 0.491501 -0.346593
